<svg width="32" height="32" viewBox="0 0 32 32" fill="none" xmlns="http://www.w3.org/2000/svg">
<rect width="32" height="32" rx="4" fill="#070808"/>
<path fill-rule="evenodd" clip-rule="evenodd" d="M23.8 16C25.015 16 26 15.015 26 13.8L26 8.2C26 6.98497 25.015 6 23.8 6L18.1281 6C16.913 6 15.9281 6.98497 15.9281 8.2L15.9281 13.8C15.9281 15.015 14.9431 16 13.7281 16L8.2 16C6.985 16 6 16.985 6 18.2L6 23.8C6 25.015 6.985 26 8.2 26L13.872 26C15.087 26 16.0719 25.015 16.0719 23.8L16.0719 18.2C16.0719 16.985 17.0569 16 18.2719 16L23.8 16Z" fill="url(#paint0_linear_2057_4078)"/>
<defs>
<linearGradient id="paint0_linear_2057_4078" x1="21.2508" y1="18.3747" x2="7.6377" y2="12.3187" gradientUnits="userSpaceOnUse">
<stop stop-color="#E4DED3"/>
<stop offset="1" stop-color="#EFECE6"/>
</linearGradient>
</defs>
</svg>
