<svg width="395" height="395" viewBox="0 0 395 395" fill="none" xmlns="http://www.w3.org/2000/svg">
<path fill-rule="evenodd" clip-rule="evenodd" d="M351.55 197.5C375.547 197.5 395 178.047 395 154.05L395 43.45C395 19.4532 375.547 -8.40846e-07 351.55 -1.87808e-06L239.529 -6.72008e-06C215.532 -7.75732e-06 196.08 19.4532 196.08 43.45L196.08 154.05C196.08 178.047 176.626 197.5 152.63 197.5L43.45 197.5C19.4538 197.5 2.09273e-05 216.954 1.98666e-05 240.95L1.49776e-05 351.55C1.39168e-05 375.546 19.4537 395 43.45 395L155.472 395C179.468 395 198.921 375.546 198.921 351.55L198.921 240.95C198.921 216.954 218.374 197.5 242.371 197.5L351.55 197.5Z" fill="#555555"/>
</svg>
