<svg width="613" height="68" viewBox="0 0 613 68" fill="none" xmlns="http://www.w3.org/2000/svg">
<g clip-path="url(#clip0_2001_778)">
<path fill-rule="evenodd" clip-rule="evenodd" d="M58.74 33.5C62.7496 33.5 66 30.2496 66 26.24L66 7.76C66 3.75041 62.7496 0.5 58.74 0.5L40.0226 0.499999C36.013 0.499999 32.7627 3.75041 32.7627 7.76L32.7627 26.24C32.7627 30.2496 29.5122 33.5 25.5027 33.5L7.26 33.5C3.2505 33.5 -4.20716e-06 36.7505 -4.38242e-06 40.76L-5.19021e-06 59.24C-5.36547e-06 63.2495 3.25049 66.5 7.25999 66.5L25.9776 66.5C29.9871 66.5 33.2374 63.2495 33.2374 59.24L33.2374 40.76C33.2374 36.7505 36.4878 33.5 40.4974 33.5L58.74 33.5Z" fill="url(#paint0_linear_2001_778)"/>
</g>
<path d="M113.438 45.625H97.4062V67H85.7812V4.5625H112.312C116.688 4.5625 120.531 5.4375 123.844 7.1875C127.156 8.875 129.719 11.25 131.531 14.3125C133.344 17.375 134.25 20.9375 134.25 25C134.25 29.0625 133.375 32.6562 131.625 35.7812C129.938 38.8438 127.531 41.25 124.406 43C121.281 44.75 117.625 45.625 113.438 45.625ZM111.281 14.5938H97.4062V35.2188H111.281C114.719 35.2188 117.438 34.3438 119.438 32.5938C121.438 30.7812 122.438 28.25 122.438 25C122.438 21.75 121.438 19.2188 119.438 17.4062C117.5 15.5312 114.781 14.5938 111.281 14.5938ZM138.952 4.5625H150.577V67H138.952V4.5625ZM195.499 67H156.592V4.5625H168.217V56.125H195.499V67ZM238.732 67H199.826V4.5625H211.451V56.125H238.732V67ZM297.997 67H285.81L281.122 53.0312H257.497L252.997 67H240.716L262.841 4.5625H275.966L297.997 67ZM269.216 17.125L260.591 43.6562H278.029L269.216 17.125ZM325.575 43.5625H313.387V67H301.762V4.5625H329.7C333.762 4.5625 337.294 5.3125 340.294 6.8125C343.356 8.3125 345.731 10.4375 347.419 13.1875C349.169 15.875 350.044 19.0625 350.044 22.75C350.044 26.5625 348.981 29.875 346.856 32.6875C344.794 35.4375 341.981 37.4062 338.419 38.5938C341.606 39.2812 343.981 40.6875 345.544 42.8125C347.106 44.9375 348.137 48.0938 348.637 52.2812L350.325 67H338.981L337.387 53.4062C336.95 50.0312 335.825 47.5625 334.012 46C332.2 44.375 329.387 43.5625 325.575 43.5625ZM328.012 14.5H313.387V33.625H328.012C331.262 33.625 333.825 32.8125 335.7 31.1875C337.575 29.5625 338.512 27.2188 338.512 24.1562C338.512 21.0938 337.575 18.7188 335.7 17.0312C333.825 15.3438 331.262 14.5 328.012 14.5ZM381.09 41.7812L371.996 40.8438C365.934 40.1562 361.277 38.2812 358.027 35.2188C354.84 32.0938 353.246 27.875 353.246 22.5625C353.246 16.75 355.371 12.1562 359.621 8.78125C363.871 5.40625 369.652 3.71875 376.965 3.71875C384.027 3.71875 389.715 5.46875 394.027 8.96875C398.402 12.4062 400.902 17.1563 401.527 23.2188H389.809C389.246 19.8438 387.902 17.3438 385.777 15.7188C383.715 14.0312 380.746 13.1875 376.871 13.1875C373.246 13.1875 370.34 14 368.152 15.625C365.965 17.1875 364.871 19.2812 364.871 21.9062C364.871 26.0312 367.902 28.4688 373.965 29.2188L382.496 30.1562C395.996 31.6562 402.746 38 402.746 49.1875C402.746 52.9375 401.746 56.2188 399.746 59.0312C397.809 61.7812 395.059 63.9375 391.496 65.5C387.996 67 383.902 67.75 379.215 67.75C371.527 67.75 365.371 65.9688 360.746 62.4062C356.121 58.8438 353.465 54.0312 352.777 47.9688H364.684C365.809 54.7812 370.684 58.1875 379.309 58.1875C382.809 58.1875 385.652 57.4062 387.84 55.8438C390.027 54.2812 391.121 52.1562 391.121 49.4688C391.121 45.0938 387.777 42.5312 381.09 41.7812ZM449.261 4.5625V15.4375H431.449V67H420.011V15.4375H402.199V4.5625H449.261ZM499.807 67H487.62L482.932 53.0312H459.307L454.807 67H442.526L464.651 4.5625H477.776L499.807 67ZM471.026 17.125L462.401 43.6562H479.839L471.026 17.125ZM498.791 35.5938C498.791 29.1562 499.948 23.5625 502.26 18.8125C504.573 14 507.823 10.2812 512.01 7.65625C516.26 4.96875 521.198 3.625 526.823 3.625C531.885 3.625 536.416 4.53125 540.416 6.34375C544.416 8.15625 547.604 10.7813 549.979 14.2188C552.416 17.6562 553.823 21.8125 554.198 26.6875H542.385C542.198 22.875 540.698 19.8438 537.885 17.5938C535.135 15.2813 531.51 14.125 527.01 14.125C521.823 14.125 517.791 16 514.916 19.75C512.041 23.5 510.604 28.7812 510.604 35.5938C510.604 42.4688 512.041 47.7812 514.916 51.5312C517.791 55.2812 521.823 57.1562 527.01 57.1562C531.448 57.1562 535.041 56.0312 537.791 53.7812C540.604 51.5312 542.135 48.4375 542.385 44.5H554.198C553.885 49.5 552.51 53.75 550.073 57.25C547.635 60.6875 544.416 63.3125 540.416 65.125C536.416 66.875 531.885 67.75 526.823 67.75C521.198 67.75 516.291 66.4062 512.104 63.7188C507.916 61.0312 504.635 57.2812 502.26 52.4688C499.948 47.6562 498.791 42.0312 498.791 35.5938ZM559.462 4.5625H571.087V34.5625L595.744 4.5625H610.275L584.681 34.75L611.212 67H597.619L576.712 41.3125L571.087 48.5312V67H559.462V4.5625Z" fill="#F7F7F7"/>
<defs>
<linearGradient id="paint0_linear_2001_778" x1="50.3277" y1="41.3365" x2="5.40443" y2="21.3516" gradientUnits="userSpaceOnUse">
<stop stop-color="#E4DED3"/>
<stop offset="1" stop-color="#EFECE6"/>
</linearGradient>
<clipPath id="clip0_2001_778">
<rect width="66" height="66" fill="white" transform="translate(66 0.5) rotate(90)"/>
</clipPath>
</defs>
</svg>
