<svg width="492" height="71" viewBox="0 0 492 71" fill="none" xmlns="http://www.w3.org/2000/svg">
<g clip-path="url(#clip0_2001_778)">
<path fill-rule="evenodd" clip-rule="evenodd" d="M58.74 35.5C62.7496 35.5 66 32.2496 66 28.24L66 9.76C66 5.75041 62.7496 2.5 58.74 2.5L40.0226 2.5C36.013 2.5 32.7627 5.75041 32.7627 9.76L32.7627 28.24C32.7627 32.2496 29.5122 35.5 25.5027 35.5L7.26 35.5C3.2505 35.5 -4.20716e-06 38.7505 -4.38242e-06 42.76L-5.19021e-06 61.24C-5.36547e-06 65.2495 3.25049 68.5 7.25999 68.5L25.9776 68.5C29.9871 68.5 33.2374 65.2495 33.2374 61.24L33.2374 42.76C33.2374 38.7505 36.4878 35.5 40.4974 35.5L58.74 35.5Z" fill="url(#paint0_linear_2001_778)"/>
</g>
<path d="M113.438 47.625H97.4062V69H85.7812V6.5625H112.312C116.688 6.5625 120.531 7.4375 123.844 9.1875C127.156 10.875 129.719 13.25 131.531 16.3125C133.344 19.375 134.25 22.9375 134.25 27C134.25 31.0625 133.375 34.6562 131.625 37.7812C129.938 40.8438 127.531 43.25 124.406 45C121.281 46.75 117.625 47.625 113.438 47.625ZM111.281 16.5938H97.4062V37.2188H111.281C114.719 37.2188 117.438 36.3438 119.438 34.5938C121.438 32.7812 122.438 30.25 122.438 27C122.438 23.75 121.438 21.2188 119.438 19.4062C117.5 17.5312 114.781 16.5938 111.281 16.5938ZM137.546 8.0625C137.546 6.0625 138.234 4.375 139.609 3C141.046 1.5625 142.765 0.84375 144.765 0.84375C146.702 0.84375 148.39 1.5625 149.827 3C151.265 4.375 151.984 6.0625 151.984 8.0625C151.984 10.0625 151.265 11.7812 149.827 13.2188C148.39 14.5937 146.702 15.2812 144.765 15.2812C142.765 15.2812 141.046 14.5937 139.609 13.2188C138.234 11.7812 137.546 10.0625 137.546 8.0625ZM138.952 21H150.577V69H138.952V21ZM156.499 1.78125H168.124V69H156.499V1.78125ZM174.045 1.78125H185.67V69H174.045V1.78125ZM233.872 37.7812V69H222.341V61.5C220.716 64.1875 218.529 66.3125 215.779 67.875C213.091 69.375 210.029 70.125 206.591 70.125C203.529 70.125 200.779 69.5 198.341 68.25C195.966 66.9375 194.091 65.1875 192.716 63C191.341 60.75 190.654 58.1562 190.654 55.2188C190.654 50.9688 191.872 47.6562 194.31 45.2812C196.81 42.8438 200.404 41.4688 205.091 41.1562L217.654 40.3125C219.341 40.25 220.529 39.9062 221.216 39.2812C221.966 38.6562 222.341 37.6875 222.341 36.375V36.1875C222.341 34 221.435 32.1562 219.622 30.6562C217.81 29.0938 215.622 28.3125 213.06 28.3125C206.935 28.3125 203.56 30.9062 202.935 36.0938H191.029C191.404 31.1562 193.56 27.1875 197.497 24.1875C201.497 21.1875 206.654 19.6875 212.966 19.6875C217.091 19.6875 220.716 20.4688 223.841 22.0312C226.966 23.5938 229.404 25.75 231.154 28.5C232.966 31.1875 233.872 34.2812 233.872 37.7812ZM202.372 54.6562C202.372 56.5938 203.122 58.1562 204.622 59.3438C206.185 60.5312 208.247 61.125 210.81 61.125C214.06 61.125 216.779 60.0312 218.966 57.8438C221.216 55.6562 222.341 52.9375 222.341 49.6875V48L209.31 48.75C204.685 49.0625 202.372 51.0312 202.372 54.6562ZM239.981 21H251.606V28.5938C253.169 25.8438 255.106 23.75 257.419 22.3125C259.731 20.8125 262.075 20.0625 264.45 20.0625H267.262V31.875H264.544C260.856 31.875 257.762 32.875 255.262 34.875C252.825 36.8125 251.606 39.3438 251.606 42.4688V69H239.981V21ZM294.746 50.0625L286.027 49.0312C275.465 47.9062 270.184 43.1562 270.184 34.7812C270.184 30.1562 271.996 26.5 275.621 23.8125C279.309 21.125 284.309 19.7812 290.621 19.7812C296.684 19.7812 301.59 21.1875 305.34 24C309.09 26.75 311.246 30.5625 311.809 35.4375H300.465C299.652 30.6875 296.371 28.3125 290.621 28.3125C287.934 28.3125 285.777 28.8438 284.152 29.9062C282.59 30.9688 281.809 32.375 281.809 34.125C281.809 35.8125 282.34 37.0625 283.402 37.875C284.527 38.6875 286.184 39.25 288.371 39.5625L297.465 40.5C302.84 41.0625 306.746 42.5625 309.184 45C311.684 47.4375 312.934 50.9375 312.934 55.5C312.934 59.9375 311.09 63.4688 307.402 66.0938C303.715 68.7188 298.84 70.0312 292.777 70.0312C286.09 70.0312 280.715 68.6562 276.652 65.9062C272.652 63.0938 270.34 59.3125 269.715 54.5625H281.621C282.434 59.25 286.121 61.5938 292.684 61.5938C295.371 61.5938 297.527 61.0938 299.152 60.0938C300.84 59.0938 301.684 57.7188 301.684 55.9688C301.684 52.5938 299.371 50.625 294.746 50.0625ZM322.23 69V30.375H314.261V21H322.23V8.53125H333.761V21H341.824V30.375H333.761V69H322.23ZM386.932 37.7812V69H375.401V61.5C373.776 64.1875 371.589 66.3125 368.839 67.875C366.151 69.375 363.089 70.125 359.651 70.125C356.589 70.125 353.839 69.5 351.401 68.25C349.026 66.9375 347.151 65.1875 345.776 63C344.401 60.75 343.714 58.1562 343.714 55.2188C343.714 50.9688 344.932 47.6562 347.37 45.2812C349.87 42.8438 353.464 41.4688 358.151 41.1562L370.714 40.3125C372.401 40.25 373.589 39.9062 374.276 39.2812C375.026 38.6562 375.401 37.6875 375.401 36.375V36.1875C375.401 34 374.495 32.1562 372.682 30.6562C370.87 29.0938 368.682 28.3125 366.12 28.3125C359.995 28.3125 356.62 30.9062 355.995 36.0938H344.089C344.464 31.1562 346.62 27.1875 350.557 24.1875C354.557 21.1875 359.714 19.6875 366.026 19.6875C370.151 19.6875 373.776 20.4688 376.901 22.0312C380.026 23.5938 382.464 25.75 384.214 28.5C386.026 31.1875 386.932 34.2812 386.932 37.7812ZM355.432 54.6562C355.432 56.5938 356.182 58.1562 357.682 59.3438C359.245 60.5312 361.307 61.125 363.87 61.125C367.12 61.125 369.839 60.0312 372.026 57.8438C374.276 55.6562 375.401 52.9375 375.401 49.6875V48L362.37 48.75C357.745 49.0625 355.432 51.0312 355.432 54.6562ZM392.104 44.8125C392.104 39.75 393.073 35.3438 395.01 31.5938C397.01 27.7812 399.791 24.8438 403.354 22.7812C406.916 20.6563 411.073 19.5938 415.823 19.5938C420.073 19.5938 423.885 20.4062 427.26 22.0312C430.635 23.6562 433.323 26 435.323 29.0625C437.385 32.0625 438.573 35.625 438.885 39.75H427.073C426.948 36.4375 425.854 33.9375 423.791 32.25C421.791 30.5 419.135 29.625 415.823 29.625C412.01 29.625 409.073 30.9688 407.01 33.6562C404.948 36.2812 403.916 40 403.916 44.8125C403.916 49.6875 404.948 53.4688 407.01 56.1562C409.135 58.8438 412.073 60.1875 415.823 60.1875C419.073 60.1875 421.698 59.4062 423.698 57.8438C425.76 56.2812 426.885 53.9375 427.073 50.8125H438.885C438.26 56.9375 435.854 61.7188 431.666 65.1562C427.479 68.5312 422.198 70.2188 415.823 70.2188C411.073 70.2188 406.916 69.1562 403.354 67.0312C399.791 64.9062 397.01 61.9375 395.01 58.125C393.073 54.3125 392.104 49.875 392.104 44.8125ZM473.681 21H488.025L469.181 43.7812L489.337 69H475.65L460.744 50.3438L455.587 56.625V69H443.962V1.78125H455.587V44.25L473.681 21Z" fill="black"/>
<defs>
<linearGradient id="paint0_linear_2001_778" x1="50.3277" y1="43.3365" x2="5.40443" y2="23.3516" gradientUnits="userSpaceOnUse">
<stop stop-color="#E4DED3"/>
<stop offset="1" stop-color="#EFECE6"/>
</linearGradient>
<clipPath id="clip0_2001_778">
<rect width="66" height="66" fill="white" transform="translate(66 2.5) rotate(90)"/>
</clipPath>
</defs>
</svg>
